<!-- Generated by IcoMoon.io -->
<svg version="1.1" xmlns="http://www.w3.org/2000/svg" width="25" height="25" viewBox="0 0 25 25">
<path d="M12.5 20.85q3.418 0 5.884-2.466t2.466-5.884-2.466-5.884-5.884-2.466-5.884 2.466-2.466 5.884 2.466 5.884 5.884 2.466zM12.5 2.1q4.297 0 7.349 3.052t3.052 7.349-3.052 7.349-7.349 3.052-7.349-3.052-3.052-7.349 3.052-7.349 7.349-3.052zM12.354 9.521q-1.953 0-1.953 2.832v0.293q0 2.832 1.953 2.832 0.732 0 1.221-0.415t0.488-1.050h1.855q0 1.221-1.074 2.148-1.025 0.879-2.49 0.879-1.953 0-2.979-1.172t-1.025-3.223v-0.293q0-2.002 0.977-3.125 1.172-1.318 3.027-1.318 1.611 0 2.539 0.928 1.025 1.025 1.025 2.393h-1.855q0-0.342-0.146-0.635-0.244-0.488-0.342-0.586-0.488-0.488-1.221-0.488z"></path>
</svg>
