<!-- Generated by IcoMoon.io -->
<svg version="1.1" xmlns="http://www.w3.org/2000/svg" width="25" height="25" viewBox="0 0 25 25">
<path d="M12.5 25c-6.895 0-12.5-5.605-12.5-12.5s5.605-12.5 12.5-12.5c6.895 0 12.5 5.605 12.5 12.5s-5.605 12.5-12.5 12.5v0zM23.042 14.209c-0.366-0.117-3.306-0.991-6.65-0.454 1.396 3.838 1.963 6.963 2.075 7.612 2.393-1.621 4.102-4.185 4.575-7.158v0zM16.67 22.344c-0.161-0.938-0.776-4.199-2.275-8.096-0.024 0.010-0.049 0.015-0.068 0.024-6.025 2.1-8.188 6.274-8.379 6.665 1.812 1.411 4.087 2.256 6.553 2.256 1.479 0 2.891-0.303 4.17-0.85v0zM4.565 19.653c0.244-0.415 3.174-5.264 8.677-7.046 0.137-0.044 0.278-0.088 0.42-0.127-0.269-0.605-0.562-1.216-0.864-1.812-5.327 1.597-10.503 1.528-10.972 1.523-0.005 0.107-0.005 0.215-0.005 0.327 0 2.739 1.040 5.244 2.744 7.134v0zM2.051 10.327c0.479 0.005 4.878 0.024 9.873-1.299-1.768-3.145-3.677-5.791-3.96-6.177-2.988 1.411-5.225 4.165-5.913 7.476v0zM10 2.134c0.293 0.396 2.236 3.037 3.984 6.25 3.799-1.421 5.405-3.584 5.596-3.857-1.885-1.675-4.365-2.69-7.080-2.69-0.859 0.005-1.699 0.107-2.5 0.298v0zM20.767 5.767c-0.225 0.303-2.017 2.598-5.962 4.209 0.249 0.508 0.488 1.025 0.708 1.548 0.078 0.186 0.156 0.366 0.229 0.552 3.555-0.444 7.085 0.269 7.437 0.342-0.024-2.52-0.928-4.834-2.412-6.65v0z"></path>
</svg>
