<!-- Generated by IcoMoon.io -->
<svg version="1.1" xmlns="http://www.w3.org/2000/svg" width="28" height="25" viewBox="0 0 28 25">
<path d="M26.563 3.125h-1.563v-1.563c0-0.859-0.703-1.563-1.563-1.563h-21.875c-0.859 0-1.563 0.703-1.563 1.563v18.75c0 0.859 0.703 1.563 1.563 1.563h1.563v1.563c0 0.859 0.703 1.563 1.563 1.563h21.875c0.859 0 1.563-0.703 1.563-1.563v-18.75c0-0.859-0.703-1.563-1.563-1.563zM3.125 4.688v15.625h-1.56c-0.001-0.001-0.002-0.002-0.003-0.003v-18.744c0.001-0.001 0.002-0.002 0.003-0.003h21.869c0.001 0.001 0.002 0.002 0.003 0.003v1.56h-18.75c-0.859 0-1.563 0.703-1.563 1.563v0zM26.563 23.435c-0.001 0.001-0.002 0.002-0.003 0.003h-21.869c-0.001-0.001-0.002-0.002-0.003-0.003v-18.744c0.001-0.001 0.002-0.002 0.003-0.003h21.869c0.001 0.001 0.002 0.002 0.003 0.003v18.744z"></path>
<path d="M23.438 8.594c0 1.294-1.049 2.344-2.344 2.344s-2.344-1.049-2.344-2.344 1.049-2.344 2.344-2.344 2.344 1.049 2.344 2.344z"></path>
<path d="M25 21.875h-18.75v-3.125l5.469-9.375 6.25 7.813h1.563l5.469-4.688z"></path>
</svg>
