<!-- Generated by IcoMoon.io -->
<svg version="1.1" xmlns="http://www.w3.org/2000/svg" width="25" height="25" viewBox="0 0 25 25">
<path d="M1.968 6.607c0.61 0.327 9.060 4.868 9.375 5.036s0.723 0.249 1.132 0.249c0.41 0 0.818-0.080 1.132-0.249s8.765-4.709 9.375-5.036c0.611-0.329 1.189-1.607 0.068-1.607h-21.149c-1.121 0-0.544 1.279 0.066 1.607zM23.266 9.361c-0.694 0.361-9.234 4.811-9.659 5.034s-0.723 0.249-1.132 0.249-0.707-0.026-1.132-0.249-8.916-4.674-9.61-5.035c-0.488-0.255-0.482 0.044-0.482 0.274s0 9.116 0 9.116c0 0.525 0.707 1.25 1.25 1.25h20c0.543 0 1.25-0.725 1.25-1.25 0 0 0-8.885 0-9.115s0.005-0.529-0.484-0.274z"></path>
</svg>
