<!-- Generated by IcoMoon.io -->
<svg version="1.1" xmlns="http://www.w3.org/2000/svg" width="25" height="25" viewBox="0 0 25 25">
<path d="M16.588 18.234l2.051-9.668c0.181-0.851-0.307-1.186-0.865-0.977l-12.054 4.646c-0.823 0.321-0.809 0.781-0.14 0.991l3.083 0.963 7.157-4.506c0.335-0.223 0.642-0.098 0.391 0.126l-5.79 5.232-0.223 3.181c0.321 0 0.46-0.14 0.628-0.307l1.507-1.451 3.125 2.302c0.572 0.321 0.977 0.153 1.13-0.53zM25 12.5c0 6.906-5.594 12.5-12.5 12.5s-12.5-5.594-12.5-12.5 5.594-12.5 12.5-12.5 12.5 5.594 12.5 12.5z"></path>
</svg>
