<!-- Generated by IcoMoon.io -->
<svg version="1.1" xmlns="http://www.w3.org/2000/svg" width="25" height="25" viewBox="0 0 25 25">
<path d="M21.313 3.633c-2.339-2.344-5.449-3.633-8.765-3.633-6.826 0-12.383 5.557-12.383 12.388 0 2.183 0.571 4.316 1.655 6.191l-1.758 6.421 6.567-1.724c1.812 0.986 3.848 1.509 5.918 1.509h0.005c0 0 0 0 0 0 6.826 0 12.388-5.557 12.388-12.388 0-3.311-1.289-6.421-3.628-8.765zM12.554 22.695v0c-1.851 0-3.662-0.498-5.244-1.436l-0.376-0.225-3.896 1.021 1.040-3.799-0.244-0.391c-1.035-1.636-1.577-3.53-1.577-5.479 0-5.679 4.619-10.298 10.303-10.298 2.749 0 5.337 1.074 7.28 3.018 1.943 1.948 3.013 4.531 3.013 7.285-0.005 5.684-4.624 10.303-10.298 10.303zM18.198 14.98c-0.308-0.156-1.831-0.903-2.114-1.006s-0.488-0.156-0.698 0.156c-0.205 0.308-0.801 1.006-0.981 1.216-0.181 0.205-0.361 0.234-0.669 0.078s-1.309-0.483-2.49-1.538c-0.918-0.82-1.543-1.836-1.724-2.144s-0.020-0.479 0.137-0.63c0.142-0.137 0.308-0.361 0.464-0.542s0.205-0.308 0.308-0.518c0.103-0.205 0.054-0.386-0.024-0.542s-0.698-1.68-0.952-2.3c-0.249-0.605-0.508-0.522-0.698-0.532-0.181-0.010-0.386-0.010-0.591-0.010s-0.542 0.078-0.825 0.386c-0.283 0.308-1.084 1.060-1.084 2.583s1.108 2.993 1.265 3.203c0.156 0.205 2.183 3.335 5.288 4.673 0.737 0.317 1.313 0.508 1.763 0.654 0.742 0.234 1.416 0.2 1.948 0.122 0.596-0.088 1.831-0.747 2.090-1.47s0.259-1.343 0.181-1.47c-0.073-0.137-0.278-0.215-0.591-0.371z"></path>
</svg>
